<?xml version="1.0" encoding="UTF-8" ?>
<!DOCTYPE svg PUBLIC "-//W3C//DTD SVG 1.1//EN" "http://www.w3.org/Graphics/SVG/1.1/DTD/svg11.dtd">
<svg width="171pt" height="133pt" viewBox="0 0 171 133" version="1.1" xmlns="http://www.w3.org/2000/svg">
<path fill="#ffffff" d=" M 0.00 0.00 L 171.00 0.00 L 171.00 133.00 L 0.00 133.00 L 0.00 0.00 Z" />
<path fill="#0d6c2a" d=" M 80.00 6.12 C 84.50 5.46 89.01 5.72 93.50 6.30 C 93.46 8.58 93.44 10.86 93.43 13.14 C 96.72 13.87 99.99 14.72 103.20 15.77 C 103.19 13.54 103.21 11.32 103.24 9.10 C 104.62 9.75 105.99 10.40 107.38 11.03 C 107.45 14.01 107.45 16.99 107.44 19.96 C 102.57 17.07 97.15 15.29 91.56 14.47 C 91.56 12.16 91.55 9.85 91.54 7.54 C 88.23 7.44 84.92 7.43 81.61 7.46 C 81.62 9.78 81.62 12.11 81.64 14.43 C 76.66 15.07 71.52 15.88 67.28 18.78 C 67.09 16.67 66.95 14.56 66.79 12.45 C 65.74 13.31 64.70 14.18 63.65 15.03 C 63.60 19.75 63.69 24.46 63.55 29.17 C 71.27 23.05 81.78 21.87 91.30 22.82 C 98.57 23.43 105.62 26.22 111.12 31.06 C 107.62 32.46 104.25 34.16 100.97 36.01 C 100.94 47.66 101.18 59.31 100.84 70.94 C 92.81 64.64 81.73 66.06 72.71 69.19 C 77.43 65.30 81.36 60.50 83.62 54.77 C 87.10 46.87 90.92 37.26 100.13 34.78 C 93.95 31.76 86.87 30.99 80.24 32.91 C 77.14 33.65 74.15 34.79 71.18 35.94 C 70.52 46.40 71.65 56.94 70.56 67.36 C 70.04 64.98 69.91 62.54 69.96 60.11 C 70.07 51.69 69.91 43.26 70.05 34.84 C 75.67 31.97 81.68 29.65 88.00 29.03 C 92.18 28.34 96.73 29.17 100.45 26.70 C 91.12 22.94 80.42 23.39 71.03 26.76 C 67.51 27.91 64.81 30.50 62.05 32.85 C 62.07 26.54 61.75 20.20 62.20 13.90 C 63.62 12.41 65.40 11.27 67.24 10.35 C 68.82 10.27 70.30 10.95 71.82 11.31 C 71.81 12.14 71.80 13.81 71.79 14.64 C 74.52 14.09 77.24 13.47 80.00 13.04 C 80.00 10.73 80.00 8.43 80.00 6.12 Z" />
<path fill="#0d6c2a" d=" M 42.18 59.35 C 51.27 59.39 60.37 59.37 69.46 59.37 C 69.46 60.02 69.45 61.32 69.45 61.97 C 60.37 62.02 51.29 62.02 42.21 61.98 C 42.20 61.32 42.19 60.01 42.18 59.35 Z" />
<path fill="#0d6c2a" d=" M 102.18 59.36 C 111.08 59.37 119.97 59.38 128.86 59.36 C 129.02 60.06 129.32 61.46 129.47 62.16 C 120.37 61.95 111.25 61.80 102.16 62.24 C 102.17 61.28 102.18 60.32 102.18 59.36 Z" />
<path fill="#0d6c2a" d=" M 70.52 70.80 C 77.01 71.83 83.71 70.38 90.12 71.85 C 95.17 73.03 96.97 79.45 94.80 83.74 C 93.72 86.35 91.42 88.10 89.33 89.87 C 93.10 95.31 96.41 101.21 101.19 105.86 C 104.16 108.52 108.00 107.02 111.33 106.14 C 107.89 109.79 101.79 110.85 97.43 108.34 C 91.75 103.66 88.64 96.78 84.29 90.99 C 82.40 91.23 80.50 91.42 78.60 91.57 C 78.65 96.84 78.63 102.10 78.62 107.37 C 79.81 107.94 81.00 108.51 82.19 109.07 C 78.34 109.63 74.45 109.50 70.58 109.31 C 71.53 108.72 72.49 108.15 73.46 107.58 C 74.38 100.76 73.88 93.87 74.00 87.01 C 73.92 82.32 74.37 77.57 73.41 72.94 C 72.44 72.23 71.48 71.52 70.52 70.80 Z" />
<path fill="#0d6c2a" d=" M 45.64 71.38 C 46.55 71.32 47.45 71.26 48.36 71.19 C 47.21 73.86 47.69 76.82 47.72 79.63 C 49.45 79.14 51.87 79.24 51.77 76.81 C 51.86 77.42 52.02 78.65 52.10 79.26 C 53.38 76.51 54.51 73.68 55.75 70.91 C 57.20 73.21 57.06 77.19 60.16 77.87 C 61.00 79.57 63.10 78.94 64.61 79.25 C 64.40 76.15 59.12 76.47 60.24 73.11 C 60.42 70.33 64.21 71.13 65.41 72.78 C 63.98 72.46 62.55 72.11 61.13 71.74 C 60.77 74.28 63.13 75.02 64.74 76.30 C 64.83 77.44 64.87 78.59 64.86 79.74 C 62.44 79.80 60.03 79.87 57.62 79.97 C 57.26 78.77 56.90 77.56 56.53 76.36 L 55.37 76.80 C 55.49 75.90 55.75 74.09 55.87 73.19 C 54.87 75.35 53.96 77.54 53.13 79.77 C 50.80 79.82 48.47 79.98 46.14 80.11 C 46.25 77.19 46.34 74.23 45.64 71.38 Z" />
<path fill="#ffffff" d=" M 78.63 72.49 C 81.39 72.67 84.33 72.51 86.84 73.87 C 91.86 76.90 93.05 85.49 87.66 88.79 C 84.79 89.88 81.66 89.94 78.63 90.07 C 78.63 84.21 78.62 78.35 78.63 72.49 Z" />
<path fill="#0d6c2a" d=" M 42.68 89.42 C 42.51 85.92 44.61 82.28 48.07 81.23 C 50.56 80.94 53.07 81.26 55.56 81.38 C 55.71 81.96 56.01 83.13 56.15 83.71 C 53.73 82.16 50.93 81.53 48.07 81.81 C 46.87 83.11 45.41 84.26 44.65 85.89 C 44.04 89.91 46.67 94.76 51.04 95.05 C 53.56 95.44 55.85 94.09 58.13 93.25 C 56.62 96.96 51.96 95.66 48.81 95.80 C 45.39 95.88 42.98 92.56 42.68 89.42 Z" />
<path fill="#0d6c2a" d=" M 57.70 87.36 C 58.93 81.38 66.88 78.78 71.43 82.76 C 74.71 86.72 73.10 94.09 67.90 95.62 C 65.24 96.15 61.79 96.46 59.84 94.14 C 57.85 92.46 58.06 89.70 57.70 87.36 Z" />
<path fill="#0d6c2a" d=" M 96.85 82.63 C 96.96 82.16 97.17 81.22 97.28 80.75 C 104.39 81.60 111.55 80.97 118.68 81.21 C 118.66 82.10 118.64 83.00 118.64 83.90 C 117.51 81.38 114.64 82.07 112.44 81.77 C 112.44 83.95 112.43 86.13 112.44 88.31 C 114.51 88.12 116.59 87.88 118.67 87.80 C 116.85 89.13 114.51 88.85 112.39 89.15 C 112.43 90.94 112.47 92.73 112.54 94.53 C 114.53 94.55 116.53 94.55 118.53 94.57 L 118.38 93.28 L 119.42 93.77 C 119.62 92.69 119.81 91.61 120.01 90.53 C 120.24 91.47 120.69 93.33 120.92 94.27 C 123.69 95.00 126.46 94.58 128.01 91.91 C 125.88 89.84 122.93 89.04 120.65 87.20 C 119.70 85.49 120.52 83.43 120.58 81.59 C 122.83 81.28 125.11 81.14 127.38 81.12 C 127.55 82.03 127.72 82.93 127.90 83.83 C 126.08 81.98 123.76 81.63 121.39 82.58 C 121.46 83.41 121.60 85.07 121.67 85.90 C 123.95 86.91 126.61 87.52 128.36 89.42 C 128.67 90.89 128.45 92.40 128.40 93.88 C 126.73 94.81 125.04 95.72 123.47 96.82 C 123.79 99.28 123.84 101.76 123.89 104.23 C 125.17 103.95 126.45 103.67 127.73 103.37 C 127.72 103.69 127.68 104.32 127.67 104.64 C 124.34 104.70 121.00 104.65 117.68 104.92 C 116.80 103.93 115.88 102.96 115.13 101.86 C 115.48 100.78 115.88 99.71 116.33 98.67 C 115.73 98.39 114.53 97.82 113.93 97.53 C 114.06 100.01 114.16 102.50 114.36 104.98 C 112.99 104.86 111.63 104.74 110.27 104.59 C 108.86 104.64 107.46 104.70 106.06 104.78 C 106.02 104.44 105.93 103.74 105.89 103.40 C 107.49 104.05 109.14 103.96 110.74 103.30 C 109.30 102.37 107.78 101.58 106.40 100.57 C 106.31 99.40 106.28 98.23 106.31 97.06 C 107.90 97.31 109.54 97.48 110.94 98.36 C 109.43 98.23 107.92 98.07 106.41 97.90 C 108.09 99.85 110.13 101.43 111.71 103.46 C 111.98 103.52 112.50 103.64 112.77 103.70 C 113.69 101.65 112.70 99.24 112.64 97.08 C 114.37 97.23 116.10 97.36 117.83 97.54 C 117.46 98.77 117.07 99.99 116.66 101.20 C 117.21 102.15 117.76 103.10 118.30 104.06 C 119.69 103.87 121.07 103.67 122.46 103.50 C 122.40 101.64 122.36 99.79 122.30 97.94 C 122.75 97.13 123.20 96.32 123.66 95.51 C 118.96 95.66 114.27 95.51 109.58 95.78 C 111.13 91.28 110.10 86.42 110.35 81.75 C 108.22 82.42 106.00 82.08 103.82 81.97 C 104.09 86.60 103.05 91.45 104.65 95.90 C 103.07 95.72 101.48 95.57 99.90 95.43 C 100.40 95.21 101.41 94.78 101.92 94.56 C 102.05 90.27 101.97 85.98 102.02 81.69 C 100.27 81.86 98.53 82.11 96.85 82.63 Z" />
<path fill="#ffffff" d=" M 59.52 84.91 C 61.52 83.52 63.89 81.06 66.52 82.39 C 69.73 83.44 71.38 86.58 72.20 89.64 C 71.20 91.13 70.55 93.05 68.85 93.90 C 66.28 95.80 62.75 94.39 61.02 92.04 C 59.09 90.18 59.59 87.32 59.52 84.91 Z" />
<path fill="#0d6c2a" d=" M 42.19 112.35 C 71.12 112.38 100.04 112.38 128.97 112.35 C 128.97 113.78 128.97 115.21 128.97 116.64 C 100.05 116.62 71.13 116.61 42.20 116.65 C 42.20 115.21 42.20 113.78 42.19 112.35 Z" />
<path fill="#0d6c2a" d=" M 43.04 118.58 C 45.30 118.51 47.52 118.85 49.72 119.33 C 51.45 119.13 53.20 118.28 54.97 118.76 C 55.37 119.50 56.19 120.98 56.60 121.72 L 57.57 121.48 C 57.25 120.56 56.62 118.71 56.30 117.79 C 58.85 119.23 60.72 121.46 62.51 123.72 C 62.58 121.59 62.40 119.38 63.15 117.34 L 63.06 119.44 C 67.94 118.00 73.15 118.46 78.16 118.76 C 79.32 119.94 78.31 121.74 78.35 123.16 C 79.26 123.99 80.19 124.81 81.13 125.62 C 81.04 123.22 80.94 120.83 80.71 118.45 C 81.14 118.44 82.02 118.41 82.45 118.40 C 81.93 121.01 81.16 125.63 85.22 125.35 C 85.33 122.99 85.38 120.63 85.39 118.26 C 85.60 118.28 86.02 118.32 86.23 118.33 C 86.74 119.49 87.28 120.63 87.83 121.77 C 87.78 117.97 92.23 118.08 94.62 119.35 C 92.69 119.47 90.75 119.52 88.82 119.65 C 88.80 120.48 88.76 122.14 88.73 122.97 C 89.26 125.74 92.41 125.06 94.45 125.18 C 94.68 123.18 93.84 120.20 96.10 119.10 C 98.45 118.15 101.06 119.00 103.51 118.55 C 103.44 120.97 103.45 123.39 103.55 125.82 C 100.83 125.62 98.11 125.64 95.40 125.32 C 93.34 125.82 91.21 125.79 89.12 125.52 C 88.26 124.68 87.36 123.88 86.42 123.14 L 87.16 125.71 C 84.33 125.72 81.50 125.73 78.68 125.72 C 77.84 124.51 76.99 123.31 76.16 122.09 C 75.91 123.76 75.64 125.47 74.67 126.90 C 74.51 124.39 74.55 121.88 74.62 119.38 C 73.90 119.41 72.48 119.47 71.77 119.50 C 71.80 121.65 71.81 123.81 71.81 125.97 C 71.47 125.98 70.79 126.00 70.45 126.01 C 70.53 123.82 70.57 121.63 70.62 119.45 C 68.85 119.49 67.08 119.52 65.31 119.51 L 65.25 121.19 C 66.03 121.38 67.60 121.75 68.39 121.94 C 68.28 123.15 68.66 124.55 67.74 125.54 C 65.97 125.74 64.19 125.62 62.42 125.56 C 60.98 123.91 59.46 122.33 57.92 120.78 C 57.82 122.52 57.74 124.26 57.68 126.01 L 57.00 126.01 C 57.05 124.94 57.16 122.80 57.21 121.73 C 56.31 122.94 55.67 124.39 54.55 125.44 C 53.02 126.67 51.11 125.54 49.54 125.03 C 46.61 126.12 42.14 126.57 41.63 122.44 C 42.10 121.15 42.57 119.86 43.04 118.58 Z" />
<path fill="#0d6c2a" d=" M 104.22 119.09 C 105.63 118.98 108.45 118.76 109.86 118.66 L 111.14 120.60 C 111.67 119.84 112.21 119.08 112.73 118.32 C 114.36 120.00 115.95 121.70 117.51 123.44 C 117.53 121.41 117.65 119.39 117.88 117.38 C 119.11 120.23 118.55 123.36 118.56 126.36 C 116.38 124.30 114.46 122.01 112.40 119.85 C 112.69 121.93 113.01 124.00 113.40 126.06 C 113.14 126.04 112.62 126.02 112.36 126.00 C 112.33 125.09 112.26 123.28 112.22 122.37 C 110.80 124.01 109.59 126.42 106.98 125.83 C 103.70 125.93 104.19 121.99 103.94 119.79 C 104.89 121.66 105.85 123.54 106.90 125.36 C 108.05 124.63 110.30 124.94 110.40 123.14 C 111.68 119.81 106.26 118.98 104.22 119.09 Z" />
<path fill="#0d6c2a" d=" M 120.27 117.90 L 120.66 119.02 C 120.35 121.62 122.50 122.84 124.73 121.66 C 125.00 121.50 125.55 121.18 125.83 121.02 C 128.58 121.24 128.89 123.55 128.24 125.66 C 125.30 125.72 122.37 125.70 119.44 125.81 C 119.63 123.16 119.21 120.41 120.27 117.90 Z" />
<path fill="#ffffff" d=" M 43.39 119.38 C 45.41 119.42 47.44 119.52 49.47 119.55 C 49.31 121.19 49.20 122.84 49.13 124.49 C 47.43 124.80 45.23 125.93 43.96 124.13 C 42.49 122.89 43.32 120.98 43.39 119.38 Z" />
<path fill="#ffffff" d=" M 50.48 120.36 C 52.27 117.72 56.81 121.14 55.09 123.73 C 54.57 124.25 53.51 125.29 52.98 125.82 C 51.46 124.51 48.71 122.58 50.48 120.36 Z" />
<path fill="#ffffff" d=" M 76.00 119.96 C 77.34 119.52 77.79 120.05 77.33 121.52 C 75.98 121.97 75.54 121.44 76.00 119.96 Z" />
<path fill="#ffffff" d=" M 95.59 119.67 C 97.79 119.48 99.99 119.46 102.20 119.37 C 102.20 121.14 102.22 122.91 102.26 124.69 C 100.26 124.92 98.25 124.91 96.26 124.66 C 95.97 123.01 95.75 121.34 95.59 119.67 Z" />
<path fill="#ffffff" d=" M 63.93 123.55 C 64.03 123.17 64.24 122.41 64.34 122.03 C 65.61 122.28 66.54 122.96 67.14 124.07 C 66.81 125.72 64.39 124.60 63.93 123.55 Z" />
<path fill="#ffffff" d=" M 121.32 124.55 C 120.62 123.02 123.27 122.26 124.36 122.76 C 124.94 124.22 122.41 125.27 121.32 124.55 Z" />
<path fill="#ffffff" d=" M 125.28 124.77 C 125.37 124.21 125.54 123.11 125.63 122.55 C 127.95 122.17 127.33 126.14 125.28 124.77 Z" />
</svg>
